<svg width="64" height="64" viewBox="0 0 64 64" fill="none" xmlns="http://www.w3.org/2000/svg">
<path d="M33.0001 36C32.8678 35.9995 32.737 35.9727 32.6151 35.9212C32.4932 35.8697 32.3828 35.7945 32.2901 35.7L28.3801 31.79C28.1939 31.6027 28.0894 31.3492 28.0894 31.085C28.0894 30.8208 28.1939 30.5674 28.3801 30.38L56.3801 2.38003C56.5675 2.19378 56.821 2.08923 57.0851 2.08923C57.3493 2.08923 57.6028 2.19378 57.7901 2.38003L61.7101 6.30003C61.8964 6.48739 62.0009 6.74084 62.0009 7.00503C62.0009 7.26921 61.8964 7.52266 61.7101 7.71003L33.6601 35.71C33.4839 35.8854 33.2486 35.9888 33.0001 36ZM30.4601 31L32.9601 33.5L59.5901 6.91003L57.0901 4.41003L30.4601 31Z" fill="black"/>
<path d="M38.86 30.05C38.7284 30.0507 38.5979 30.0255 38.4761 29.9757C38.3542 29.926 38.2434 29.8526 38.15 29.76L34.24 25.85C34.1463 25.757 34.0719 25.6464 34.0211 25.5245C33.9703 25.4027 33.9442 25.272 33.9442 25.14C33.9442 25.0079 33.9703 24.8772 34.0211 24.7554C34.0719 24.6335 34.1463 24.5229 34.24 24.43C34.4273 24.2437 34.6808 24.1392 34.945 24.1392C35.2092 24.1392 35.4626 24.2437 35.65 24.43L39.57 28.35C39.7076 28.4903 39.8008 28.6682 39.8379 28.8612C39.875 29.0543 39.8544 29.254 39.7786 29.4353C39.7028 29.6167 39.5753 29.7718 39.4119 29.8811C39.2485 29.9904 39.0566 30.0491 38.86 30.05ZM28.28 51.3C28.1484 51.3007 28.0179 51.2755 27.8961 51.2257C27.7742 51.176 27.6634 51.1026 27.57 51.01L13 36.43C12.9073 36.3365 12.834 36.2257 12.7842 36.1039C12.7344 35.982 12.7092 35.8516 12.71 35.72C12.7111 35.4517 12.8149 35.1941 13 35L17.75 30.26C18.5362 29.469 19.4711 28.8413 20.5008 28.413C21.5305 27.9847 22.6347 27.7641 23.75 27.7641C24.8652 27.7641 25.9695 27.9847 26.9992 28.413C28.0289 28.8413 28.9637 29.469 29.75 30.26L33.75 34.26C35.3322 35.8459 36.2207 37.9947 36.2207 40.235C36.2207 42.4752 35.3322 44.624 33.75 46.21L29 51C28.8074 51.1887 28.5496 51.2961 28.28 51.3ZM15.11 35.72L28.28 48.89L32.28 44.89C33.4891 43.6804 34.1683 42.0402 34.1683 40.33C34.1683 38.6197 33.4891 36.9795 32.28 35.77L28.28 31.77C27.0704 30.5609 25.4302 29.8816 23.72 29.8816C22.0097 29.8816 20.3695 30.5609 19.16 31.77L15.11 35.72Z" fill="black"/>
<path d="M32.0599 46.78C31.9283 46.7808 31.7978 46.7555 31.676 46.7058C31.5541 46.656 31.4433 46.5827 31.3499 46.49L17.5099 32.65C17.3216 32.4617 17.2158 32.2063 17.2158 31.94C17.2158 31.6737 17.3216 31.4183 17.5099 31.23C17.6982 31.0417 17.9536 30.9359 18.2199 30.9359C18.4862 30.9359 18.7416 31.0417 18.9299 31.23L32.7699 45.07C32.8636 45.163 32.938 45.2736 32.9888 45.3954C33.0395 45.5173 33.0657 45.648 33.0657 45.78C33.0657 45.912 33.0395 46.0427 32.9888 46.1646C32.938 46.2864 32.8636 46.397 32.7699 46.49C32.6764 46.5827 32.5656 46.656 32.4438 46.7058C32.3219 46.7555 32.1915 46.7808 32.0599 46.78ZM22.3699 62C22.1075 61.9989 21.8561 61.8947 21.6699 61.71L16.1299 56.17C16.0031 56.0407 15.9137 55.8793 15.8715 55.7032C15.8292 55.5271 15.8356 55.3428 15.8899 55.17L17.3299 50.84L12.9999 52.26C12.8253 52.3118 12.6399 52.315 12.4637 52.2692C12.2875 52.2233 12.1271 52.1303 11.9999 52L2.28987 42.33C2.15628 42.1953 2.06378 42.0253 2.02317 41.84C1.98256 41.6546 1.99552 41.4616 2.06053 41.2833C2.12554 41.1051 2.23992 40.949 2.39031 40.8333C2.54071 40.7176 2.72091 40.6471 2.90987 40.63C4.88112 40.5017 6.79968 39.9395 8.52839 38.9835C10.2571 38.0275 11.7532 36.7014 12.9099 35.1C13.0749 34.894 13.3146 34.7615 13.5769 34.7315C13.8392 34.7016 14.1026 34.7765 14.3099 34.94C14.4133 35.0218 14.4996 35.1233 14.5637 35.2385C14.6278 35.3538 14.6684 35.4806 14.6833 35.6117C14.6982 35.7428 14.687 35.8755 14.6503 36.0022C14.6137 36.1289 14.5524 36.2471 14.4699 36.35C12.2181 39.4588 8.87486 41.6019 5.10987 42.35L12.9999 50.17L18.6399 48.29C18.8153 48.233 19.003 48.2257 19.1823 48.2687C19.3616 48.3118 19.5255 48.4036 19.6559 48.534C19.7863 48.6644 19.8781 48.8283 19.9211 49.0076C19.9642 49.1869 19.9568 49.3746 19.8999 49.55L17.9999 55.19L21.6799 58.88C22.428 55.115 24.5711 51.7717 27.6799 49.52C27.7817 49.433 27.9 49.3674 28.0278 49.327C28.1555 49.2866 28.29 49.2723 28.4234 49.2849C28.5567 49.2975 28.6862 49.3368 28.8041 49.4004C28.922 49.464 29.0259 49.5506 29.1096 49.6552C29.1934 49.7597 29.2553 49.88 29.2917 50.0089C29.328 50.1378 29.3381 50.2727 29.3214 50.4056C29.3046 50.5385 29.2613 50.6667 29.1941 50.7826C29.1268 50.8984 29.037 50.9996 28.9299 51.08C27.329 52.2371 26.0032 53.7334 25.0473 55.462C24.0914 57.1906 23.5289 59.1089 23.3999 61.08C23.3823 61.2699 23.3109 61.4508 23.194 61.6014C23.077 61.752 22.9195 61.866 22.7399 61.93C22.6221 61.9766 22.4965 62.0003 22.3699 62Z" fill="black"/>
<path d="M11.0002 44C10.735 44.008 10.4774 43.9103 10.2843 43.7283C10.0911 43.5464 9.97813 43.2952 9.97018 43.03C9.96222 42.7648 10.0599 42.5073 10.2419 42.3141C10.4238 42.121 10.675 42.008 10.9402 42C11.4069 41.9719 11.8571 41.8175 12.2429 41.5533C12.6286 41.2891 12.9353 40.925 13.1302 40.5C13.1958 40.3858 13.2834 40.2856 13.3877 40.2051C13.4921 40.1247 13.6113 40.0656 13.7385 40.0313C13.8658 39.9969 13.9985 39.988 14.1292 40.0049C14.2599 40.0218 14.3859 40.0644 14.5002 40.13C14.6144 40.1957 14.7146 40.2832 14.7951 40.3876C14.8755 40.492 14.9346 40.6112 14.9689 40.7384C15.0033 40.8656 15.0122 40.9984 14.9953 41.129C14.9784 41.2597 14.9358 41.3858 14.8702 41.5C14.5054 42.2105 13.9626 42.8143 13.2949 43.2525C12.6271 43.6906 11.8572 43.9482 11.0602 44H11.0002ZM13.2802 48H12.9202C12.655 47.9788 12.409 47.8531 12.2365 47.6506C12.064 47.448 11.979 47.1852 12.0002 46.92C12.0214 46.6548 12.1471 46.4089 12.3496 46.2364C12.5522 46.0638 12.815 45.9788 13.0802 46C13.8702 46.07 14.0102 45.76 14.0802 45.58C14.1353 45.4605 14.2135 45.3531 14.3102 45.2638C14.4069 45.1745 14.5202 45.1051 14.6437 45.0596C14.7672 45.0141 14.8985 44.9933 15.03 44.9986C15.1615 45.0038 15.2907 45.0349 15.4102 45.09C15.5297 45.1452 15.6371 45.2233 15.7264 45.32C15.8157 45.4167 15.8851 45.53 15.9306 45.6535C15.9761 45.777 15.9969 45.9083 15.9916 46.0398C15.9864 46.1713 15.9553 46.3005 15.9002 46.42C15.6712 46.9149 15.2993 47.3299 14.8323 47.6115C14.3653 47.8931 13.8247 48.0285 13.2802 48ZM21.0002 55C20.7498 55.001 20.5082 54.9081 20.3231 54.7396C20.1379 54.5712 20.0227 54.3393 20.0002 54.09C19.8321 52.9841 19.9654 51.8532 20.386 50.8167C20.8066 49.7801 21.499 48.8761 22.3902 48.2C22.4952 48.1199 22.615 48.0613 22.7428 48.0275C22.8705 47.9937 23.0036 47.9854 23.1345 48.003C23.2655 48.0206 23.3916 48.0639 23.5058 48.1303C23.6201 48.1967 23.7201 48.285 23.8002 48.39C23.8803 48.4951 23.9389 48.6149 23.9727 48.7426C24.0065 48.8703 24.0148 49.0034 23.9972 49.1344C23.9796 49.2653 23.9363 49.3915 23.8699 49.5057C23.8035 49.6199 23.7152 49.7199 23.6102 49.8C22.9912 50.272 22.5137 50.9048 22.2298 51.6296C21.9458 52.3544 21.8664 53.1432 22.0002 53.91C22.0125 54.0414 21.9988 54.174 21.9596 54.3001C21.9205 54.4262 21.8568 54.5432 21.7722 54.6446C21.6876 54.7459 21.5838 54.8295 21.4667 54.8905C21.3497 54.9515 21.2217 54.9887 21.0902 55H21.0002Z" fill="black"/>
</svg>
