<svg width="512" height="512" viewBox="0 0 512 512" fill="none" xmlns="http://www.w3.org/2000/svg">
<g clip-path="url(#clip0_154_20)">
<path d="M505.376 252.644C497.325 249.196 490.514 243.378 485.851 235.964C482.224 230.118 479.895 223.562 479.02 216.739C478.927 213.696 478.728 210.594 478.424 207.431C476.548 188.177 468.987 151.833 439.436 124.75C405.529 93.667 365.199 94.905 344.174 98.408C335.879 99.8047 327.505 100.681 319.101 101.033L312.749 101.293C297.888 101.913 283.004 100.833 268.388 98.072C264.573 97.343 260.409 96.629 256 95.874C248.053 94.512 239.072 92.969 229.33 90.861C220.513 83.347 210.933 79.235 201.429 79.042C195.707 78.9937 190.047 80.2344 184.869 82.672C166.621 76.479 132.296 69.266 98.304 85.855C72.715 98.349 53.379 121.574 43.236 150.055C35.7355 146.816 28.5497 142.893 21.77 138.334C20.7896 137.678 19.6243 137.354 18.4459 137.41C17.2674 137.466 16.138 137.898 15.2241 138.645C14.3102 139.391 13.6601 140.411 13.3695 141.554C13.0789 142.697 13.1633 143.904 13.61 144.996C17.6764 155.084 23.7756 164.228 31.528 171.857C33.1904 173.487 34.9293 175.037 36.739 176.501C35.8051 183.033 35.3212 189.622 35.291 196.221C25.6967 192.146 16.8884 186.424 9.26405 179.316C8.34179 178.463 7.15591 177.951 5.90291 177.865C4.6499 177.779 3.40496 178.123 2.37435 178.841C1.34374 179.559 0.58932 180.607 0.236079 181.812C-0.117161 183.018 -0.0480195 184.307 0.432048 185.468C5.07605 196.67 16.0891 216.836 38.2421 228.356C37.9801 261.523 37.5911 319.966 37.3801 352.306C37.3307 359.829 38.77 367.288 41.6149 374.253C44.4598 381.218 48.6543 387.551 53.9568 392.888C59.2593 398.226 65.5651 402.461 72.5112 405.352C79.4573 408.242 86.9066 409.73 94.43 409.73H95.99C97.4332 409.73 98.8459 409.315 100.06 408.535C101.274 407.754 102.237 406.641 102.836 405.328C103.435 404.015 103.643 402.557 103.436 401.129C103.23 399.701 102.617 398.362 101.67 397.273L99.873 395.206C99.7922 395.116 99.7453 395 99.7406 394.879C99.7358 394.758 99.7735 394.639 99.847 394.543L102.753 390.678C103.596 389.562 104.11 388.233 104.239 386.84C104.368 385.448 104.106 384.047 103.482 382.795C102.858 381.543 101.898 380.491 100.709 379.755C99.5194 379.019 98.1485 378.629 96.75 378.63C91.9168 378.625 87.283 376.702 83.8653 373.285C80.4477 369.867 78.5253 365.233 78.52 360.4C78.52 360.208 78.519 360.024 78.528 359.804L82.573 235.5C91.9764 234.05 101.065 231.014 109.453 226.522C113.24 224.441 116.847 222.049 120.239 219.372C125.617 225.502 131.773 230.902 138.551 235.435C138.459 243.422 143.499 250.644 150.721 252.72L145.952 272.986C141.522 291.809 137.089 310.633 132.653 329.458C127.358 351.997 124.606 375.058 124.45 398.21V398.495C124.39 406.635 120.898 414.636 114.607 421.033C113.362 422.334 112.53 423.975 112.215 425.748C111.9 427.522 112.116 429.348 112.837 430.999C113.456 432.556 114.527 433.891 115.913 434.833C117.298 435.774 118.935 436.278 120.61 436.279H170.76C172.528 436.274 174.277 435.915 175.904 435.223C177.531 434.53 179.002 433.519 180.231 432.248C181.604 430.827 182.683 429.149 183.405 427.311C184.127 425.472 184.478 423.508 184.439 421.533L183.899 388.09C183.824 383.884 184.821 379.728 186.798 376.015L193.022 364.68C197.405 356.7 201.789 348.72 206.174 340.741C211.007 371.068 211.95 397.867 202.934 407.058C202.648 407.348 202.3 407.686 201.91 408.065C198.113 411.759 191.046 418.634 192.579 426.451C192.925 428.126 193.63 429.707 194.644 431.085C195.839 432.701 197.397 434.013 199.193 434.915C200.988 435.818 202.971 436.285 204.98 436.28H265.29C267.486 436.255 269.604 435.46 271.275 434.035C272.946 432.61 274.065 430.644 274.436 428.479C274.494 428.158 274.535 427.833 274.561 427.508C274.857 423.335 272.693 420.406 270.401 417.305C269.225 415.766 268.136 414.162 267.14 412.5C265.472 409.629 264.612 406.36 264.65 403.04L265.16 315.126C265.168 311.632 266.075 308.199 267.794 305.157C268.717 303.53 269.64 301.904 270.564 300.278C287.323 306.348 304.808 310.184 322.568 311.688C328.119 312.153 333.711 312.386 339.308 312.386C343.715 312.386 348.117 312.24 352.516 311.948C353.328 325.883 352.748 339.864 350.786 353.684C348.388 370.436 345.103 393.377 329.522 413.992C328.864 414.866 328.188 415.725 327.495 416.571C326.111 418.306 325.214 420.378 324.896 422.574C324.578 424.771 324.851 427.012 325.686 429.068L325.727 429.172C326.547 431.244 327.964 433.026 329.798 434.292C331.633 435.558 333.802 436.249 336.03 436.28H384.78C391.422 436.28 396.803 430.81 397.074 423.807L397.076 423.79C397.083 423.715 397.086 423.64 397.089 423.565C397.135 421.91 396.884 420.261 396.348 418.695L395.02 414.862C394.4 413.041 394.336 411.076 394.837 409.219L410.437 351.909C411.454 348.167 412.99 344.586 414.999 341.269C414.659 347.67 414.453 354.077 414.379 360.487C414.25 374.322 414.756 388.337 415.882 402.146C416.249 406.656 415.46 411.184 413.589 415.304C412.736 417.2 411.877 419.096 411.013 420.992L410.751 421.569C409.041 425.353 409.121 429.165 410.969 432.028C411.928 433.409 413.222 434.523 414.73 435.267C416.238 436.011 417.91 436.359 419.589 436.28H465.65C469.55 436.28 472.757 434.678 474.447 431.886C476.229 428.942 476.107 425.064 474.112 421.25L470.972 415.22C469.272 411.954 468.274 408.368 468.042 404.693C466.696 384.885 466.005 365.038 465.97 345.185C465.933 321.183 466.862 297.188 468.756 273.261C470.998 267.752 472.89 262.108 474.422 256.361C480.785 263.653 488.708 269.419 497.604 273.231C498.84 273.745 500.165 274.01 501.503 274.011C501.707 274.011 501.91 274.005 502.113 273.993C504.176 273.833 506.146 273.072 507.782 271.804C509.417 270.536 510.645 268.818 511.314 266.86C512.295 264.178 512.228 261.225 511.127 258.59C510.027 255.955 507.973 253.832 505.376 252.644ZM36.427 166.857C30.5425 161.079 25.703 154.325 22.123 146.895C28.1707 150.653 34.4976 153.942 41.048 156.732C39.912 160.552 38.9387 164.45 38.128 168.426C37.558 167.905 36.9751 167.396 36.4281 166.857H36.427ZM96.75 385.63C96.8474 385.629 96.9429 385.656 97.0258 385.707C97.1087 385.758 97.1755 385.831 97.2186 385.919C97.2617 386.006 97.2793 386.103 97.2695 386.2C97.2597 386.297 97.2228 386.389 97.163 386.466L94.25 390.34C93.2077 391.714 92.672 393.405 92.7338 395.128C92.7956 396.852 93.451 398.501 94.589 399.796L96.384 401.861C96.4507 401.937 96.4942 402.03 96.5091 402.13C96.524 402.229 96.5098 402.331 96.4682 402.423C96.4266 402.515 96.3593 402.593 96.2745 402.647C96.1896 402.702 96.0909 402.73 95.99 402.73H94.43C87.8298 402.73 81.2947 401.425 75.2009 398.889C69.1072 396.353 63.5751 392.637 58.9232 387.955C54.2714 383.273 50.5915 377.717 48.0956 371.607C45.5997 365.497 44.3369 358.953 44.3801 352.353C44.5851 321.003 44.956 265.125 45.218 231.525C53.4459 234.763 62.2111 236.418 71.053 236.403C72.581 236.403 74.073 236.34 75.545 236.25L71.533 359.548C71.521 359.836 71.52 360.112 71.52 360.4C71.5277 367.089 74.1883 373.502 78.9182 378.232C83.6481 382.962 90.061 385.622 96.75 385.63ZM145.636 234.102L153.084 178.547C153.207 177.627 152.96 176.696 152.397 175.958C151.833 175.22 151 174.736 150.08 174.613C149.16 174.49 148.229 174.737 147.491 175.3C146.753 175.864 146.269 176.697 146.146 177.617L139.456 227.527C134.373 223.807 129.71 219.544 125.55 214.813C127.233 213.24 128.862 211.586 130.439 209.853C130.748 209.513 130.987 209.115 131.142 208.682C131.298 208.25 131.366 207.791 131.344 207.332C131.322 206.872 131.21 206.422 131.014 206.006C130.818 205.591 130.542 205.218 130.202 204.908C129.861 204.599 129.463 204.36 129.031 204.205C128.598 204.05 128.139 203.981 127.68 204.003C127.221 204.025 126.771 204.138 126.355 204.334C125.939 204.53 125.566 204.806 125.257 205.146C119.758 211.255 113.28 216.405 106.088 220.385C98.589 224.495 71.898 236.838 43.28 223.054C25.578 214.527 15.281 199.821 9.76005 188.985C22.231 199.035 43.256 211.166 69.588 207.953C89.396 205.536 104.06 195.473 112.874 187.456C113.561 186.831 113.972 185.96 114.016 185.032C114.06 184.105 113.734 183.198 113.109 182.511C112.484 181.824 111.613 181.413 110.685 181.369C109.758 181.325 108.851 181.651 108.164 182.276C100.103 189.609 86.719 198.811 68.74 201.005C59.8674 202.078 50.8687 201.297 42.313 198.714C42.0832 184.24 44.2041 169.825 48.593 156.031L48.6031 156.013C48.6171 155.976 48.621 155.939 48.633 155.903C57.799 127.521 76.414 104.333 101.375 92.145C130.175 78.091 160.003 82.795 176.567 87.436C166.643 94.332 158.863 104.066 154.064 111.094C153.558 111.861 153.374 112.796 153.552 113.697C153.729 114.598 154.254 115.393 155.012 115.911C155.771 116.429 156.702 116.628 157.606 116.465C158.51 116.303 159.314 115.791 159.844 115.041C177.332 89.434 193.299 85.893 201.287 86.041C209.278 86.203 217.467 89.831 225.129 96.471C225.216 96.5585 225.308 96.6412 225.404 96.719C228.999 99.91 232.264 103.455 235.149 107.299C249.292 125.932 260.187 157.84 252.647 187.12C247.661 206.48 234.962 223.3 216.889 234.484C197.924 246.089 175.333 250.259 153.475 246.188C148.469 245.288 144.879 239.752 145.636 234.102ZM186.886 361.31L180.649 372.668C178.098 377.441 176.808 382.786 176.9 388.197L177.44 421.647C177.466 422.694 177.286 423.735 176.908 424.712C176.531 425.688 175.964 426.581 175.241 427.338C174.662 427.945 173.967 428.429 173.197 428.763C172.427 429.096 171.599 429.272 170.76 429.28H120.61C120.313 429.276 120.024 429.177 119.787 428.998C119.549 428.819 119.375 428.569 119.29 428.284C119.112 427.903 119.048 427.479 119.104 427.063C119.159 426.646 119.333 426.255 119.605 425.934C127.171 418.241 131.377 408.514 131.45 398.52V398.234C131.604 375.614 134.293 353.083 139.467 331.063C143.906 312.236 148.339 293.412 152.766 274.589L157.639 253.884C161.744 254.403 165.877 254.666 170.014 254.672C175.329 254.67 180.636 254.236 185.881 253.374C189.09 264.257 192.061 275.208 194.792 286.22C198.23 300.131 201.6 315.101 204.272 329.665C198.473 340.211 192.677 350.759 186.886 361.31ZM467.908 424.492C468.718 426.041 468.928 427.484 468.459 428.261C468.066 428.908 467.043 429.28 465.65 429.28H419.59C418.82 429.28 417.438 429.144 416.85 428.231C416.323 427.417 416.429 426.003 417.127 424.457L417.386 423.887C418.251 421.984 419.111 420.084 419.966 418.188C422.326 412.986 423.321 407.268 422.858 401.575C421.747 387.932 421.254 374.245 421.38 360.557C421.479 351.124 421.887 341.583 422.577 332.169C423.374 331.465 424.2 330.796 425.053 330.163C439.52 319.379 451.61 305.73 460.569 290.068C459.476 308.423 458.942 326.807 458.969 345.195C459.005 365.202 459.702 385.203 461.058 405.164C461.355 409.806 462.618 414.335 464.768 418.46L467.908 424.492ZM456.692 282.612C448.042 299.088 435.807 313.415 420.888 324.537C419.509 325.562 418.191 326.667 416.94 327.845C416.899 327.879 416.862 327.918 416.822 327.955C410.499 333.984 405.953 341.634 403.682 350.071L388.083 407.378C387.203 410.592 387.314 413.997 388.403 417.146L389.731 420.981C389.984 421.725 390.106 422.507 390.093 423.292C390.088 423.355 390.084 423.417 390.082 423.48C389.98 426.732 387.652 429.28 384.78 429.28H336.03C335.19 429.247 334.379 428.967 333.698 428.474C333.017 427.982 332.497 427.299 332.203 426.512L332.165 426.414C331.799 425.529 331.674 424.562 331.804 423.612C331.935 422.663 332.315 421.765 332.906 421.011C333.657 420.096 334.389 419.166 335.102 418.221C351.776 396.157 355.209 372.181 357.715 354.675C359.912 339.193 360.433 323.519 359.268 307.925V307.909L359.266 307.894C358.908 303.037 358.391 298.177 357.716 293.316C357.588 292.397 357.099 291.566 356.359 291.007C355.618 290.447 354.685 290.205 353.766 290.333C352.846 290.462 352.015 290.95 351.456 291.691C350.897 292.432 350.655 293.365 350.783 294.284C351.28 297.844 351.688 301.405 352.005 304.967C342.395 305.597 332.751 305.512 323.153 304.712C306.406 303.294 289.911 299.727 274.074 294.099L284.013 276.599C284.463 275.792 284.576 274.841 284.328 273.951C284.079 273.062 283.489 272.306 282.686 271.85C281.883 271.394 280.932 271.273 280.041 271.515C279.149 271.757 278.389 272.341 277.927 273.141C272.517 282.662 267.111 292.18 261.709 301.697C259.397 305.783 258.175 310.394 258.16 315.089L257.65 402.993C257.603 407.572 258.794 412.078 261.098 416.035C262.219 417.913 263.446 419.726 264.772 421.465C266.744 424.134 267.687 425.485 267.586 426.931C267.577 427.013 267.572 427.095 267.559 427.171C267.55 427.214 267.542 427.256 267.535 427.299C267.453 427.84 267.183 428.335 266.772 428.697C266.362 429.059 265.837 429.265 265.29 429.279H204.98C204.074 429.293 203.177 429.09 202.364 428.688C201.551 428.287 200.846 427.697 200.306 426.969C199.886 426.411 199.592 425.769 199.444 425.086C198.644 421.008 204.147 415.656 206.791 413.083C207.224 412.661 207.61 412.286 207.929 411.961C218.279 401.411 219.477 374.486 211.494 330.157C211.497 329.723 211.42 329.292 211.265 328.887C208.845 315.642 205.619 300.858 201.587 284.537C198.881 273.626 195.941 262.775 192.77 251.99C202.594 249.645 211.98 245.745 220.573 240.437C240.189 228.297 253.987 209.983 259.426 188.867C266.46 161.552 258.946 127.072 240.725 103.067C239.876 101.954 239.001 100.861 238.1 99.79C244.066 100.93 249.657 101.889 254.817 102.773C259.192 103.523 263.325 104.231 267.075 104.948C282.219 107.809 297.64 108.929 313.038 108.288L319.39 108.027C328.083 107.664 336.745 106.757 345.325 105.313C365.093 102.016 402.987 100.833 434.706 129.911C462.537 155.416 469.678 189.853 471.457 208.111C474.793 242.225 463.64 269.429 456.692 282.611V282.612ZM504.724 264.501C504.514 265.17 504.114 265.764 503.572 266.209C503.03 266.654 502.37 266.931 501.673 267.007C501.204 267.033 500.736 266.953 500.303 266.772C490.772 262.677 482.527 256.079 476.443 247.678C477.167 244.036 477.743 240.367 478.17 236.679C478.722 237.705 479.309 238.711 479.93 239.697C485.361 248.321 493.29 255.088 502.661 259.096C503.612 259.583 504.348 260.405 504.729 261.403C505.11 262.401 505.108 263.504 504.724 264.501ZM116.773 130.702C114.688 130.702 112.65 131.32 110.917 132.478C109.183 133.636 107.832 135.282 107.034 137.208C106.236 139.135 106.027 141.254 106.433 143.299C106.84 145.344 107.844 147.222 109.318 148.696C110.792 150.171 112.67 151.175 114.715 151.581C116.76 151.988 118.88 151.779 120.806 150.982C122.732 150.184 124.378 148.833 125.536 147.099C126.695 145.366 127.313 143.328 127.313 141.243C127.31 138.449 126.198 135.77 124.222 133.794C122.246 131.818 119.567 130.706 116.773 130.703V130.702ZM116.773 144.784C116.073 144.784 115.388 144.577 114.805 144.188C114.223 143.799 113.769 143.246 113.501 142.599C113.233 141.951 113.162 141.239 113.299 140.552C113.436 139.865 113.773 139.234 114.268 138.739C114.763 138.244 115.394 137.907 116.081 137.77C116.768 137.633 117.481 137.704 118.128 137.972C118.775 138.24 119.328 138.694 119.717 139.276C120.106 139.859 120.313 140.544 120.313 141.244C120.312 142.183 119.939 143.082 119.275 143.746C118.611 144.41 117.712 144.783 116.773 144.784Z" fill="black"/>
</g>
<defs>
<clipPath id="clip0_154_20">
<rect width="512" height="512" fill="white"/>
</clipPath>
</defs>
</svg>
