<svg width="512" height="512" viewBox="0 0 512 512" fill="none" xmlns="http://www.w3.org/2000/svg">
<path d="M254.349 397.5C242.429 423.479 209.627 446.662 146.816 448.306C116.493 449.131 63.212 446.382 27.276 464.876C15.278 471.05 1.40796 460.516 3.98896 447.272C12.355 404.355 36.728 367.438 70.277 342.418C139.418 404.159 250.403 397.746 254.349 397.5ZM507.33 447.285C509.916 460.528 496.047 471.074 484.05 464.899C448.076 446.38 394.764 449.131 364.429 448.306C301.538 446.662 268.736 423.56 256.816 397.5C256.816 397.5 370.677 405.31 441.05 342.336C474.54 367.422 498.948 404.359 507.33 447.285Z" fill="#13BD79"/>
<path d="M449.106 148.482C417.127 152.922 377.5 163.198 343.712 185.806C337.71 156.21 324.722 129.162 310.416 106.718C344.979 74.28 386.397 55.073 408.24 46.437C416.787 43.058 426.35 47.432 429.499 56.066C436.372 74.906 446.928 109.419 449.106 148.482Z" fill="#EA4E4E"/>
<path opacity="0.08" d="M449.125 148.472C444.571 149.123 439.799 149.882 434.973 150.75C431.448 111.168 420.821 76.792 413.772 57.381C412.145 52.989 409.109 49.573 405.314 47.567C406.344 47.187 407.32 46.808 408.242 46.428C416.809 43.066 426.352 47.458 429.497 56.08C436.383 74.894 446.902 109.433 449.125 148.472Z" fill="black"/>
<path d="M200.747 106.718C186.442 129.162 173.452 156.209 167.533 185.806C133.744 163.198 94.1192 152.922 62.1392 148.482C64.3182 109.42 74.8732 74.907 81.7462 56.068C84.8962 47.434 94.4602 43.059 103.007 46.439C124.845 55.075 166.243 74.282 200.747 106.718Z" fill="#EA4E4E"/>
<path opacity="0.08" d="M200.737 106.722C198.08 110.843 195.532 115.126 193.038 119.572C152.48 90.022 111.326 71.316 86.926 61.664C84.757 60.796 82.534 60.254 80.311 60.091C80.799 58.681 81.233 57.326 81.721 56.079C84.92 47.458 94.463 43.066 103.03 46.427C124.827 55.049 166.252 74.298 200.737 106.722Z" fill="black"/>
<path d="M447.627 336.17C377.994 405.803 256.815 397.5 256.815 397.5C256.815 397.5 256.815 397.171 256.733 396.513C267.338 386.894 347.165 311.178 347.165 219.184C347.165 207.757 345.931 196.576 343.712 185.806C396.123 150.721 462.495 145.487 492.683 145.081C501.838 144.958 509.356 152.315 509.239 161.471C508.791 196.759 501.757 282.039 447.627 336.17Z" fill="#F96464"/>
<path opacity="0.08" d="M509.256 161.486C508.768 196.784 501.773 282.02 447.606 336.187C381.347 402.446 268.35 398.108 257.614 397.566C296.979 395.939 373.105 385.963 422.881 336.187C477.048 282.02 484.042 196.784 484.531 161.486C484.639 154.22 479.922 148.093 473.415 145.87C480.789 145.382 487.296 145.111 492.664 145.057C501.828 144.948 509.364 152.322 509.256 161.486Z" fill="black"/>
<path d="M255.267 396.513C255.185 397.171 255.185 397.5 255.185 397.5C255.185 397.5 134.006 405.803 64.3731 336.17C10.2421 282.039 3.20814 196.759 2.75914 161.47C2.64314 152.314 10.1601 144.957 19.3151 145.08C49.5031 145.486 115.875 150.721 168.286 185.805C166.066 196.575 164.834 207.755 164.834 219.183C164.834 311.342 244.908 387.141 255.267 396.513Z" fill="#F96464"/>
<path opacity="0.08" d="M255.283 396.535C255.174 397.186 255.174 397.511 255.174 397.511C255.174 397.511 245.957 398.162 231.1 397.62C205.942 371.54 152.317 307.07 152.317 231.649C152.317 220.263 153.564 209.093 155.787 198.303C103.409 163.222 36.9881 157.962 6.8411 157.583C5.5941 157.583 4.3471 157.692 3.1001 157.963C4.6731 150.535 11.3421 144.95 19.3121 145.058C49.5131 145.492 115.88 150.697 168.312 185.833C166.089 196.569 164.842 207.738 164.842 219.179C164.842 311.353 244.927 387.155 255.283 396.535Z" fill="black"/>
<path opacity="0.4" d="M37.3648 211.249C34.8668 197.143 33.6348 184.395 33.0538 174.51C32.7958 170.118 29.0818 166.766 24.6848 166.903C20.1218 167.046 16.5488 170.88 16.8028 175.438C17.4318 186.7 18.7318 199.958 21.2068 214.168C21.8798 218.032 25.2868 220.823 29.2088 220.823H29.3728C34.4328 220.823 38.2468 216.231 37.3648 211.249Z" fill="white"/>
<path d="M347.142 219.214C347.142 317.693 255.622 397.467 255.622 397.467C255.622 397.467 164.102 317.693 164.102 219.214C164.102 142.661 219.405 77.411 244.031 52.151C250.377 45.641 260.866 45.641 267.212 52.151C291.839 77.411 347.142 142.661 347.142 219.214Z" fill="#F96464"/>
<path opacity="0.08" d="M347.134 219.231C347.134 317.697 255.608 397.456 255.608 397.456C255.608 397.456 252.301 394.582 246.878 389.16C269.705 366.387 329.674 298.936 329.674 219.231C329.674 142.67 274.368 77.388 249.698 52.175C248.83 51.253 247.909 50.494 246.878 49.843C253.222 45.722 261.735 46.536 267.211 52.175C291.829 77.388 347.134 142.671 347.134 219.231Z" fill="black"/>
<path d="M254.349 397.5C242.429 423.479 209.627 446.662 146.816 448.306C116.493 449.131 63.212 446.382 27.276 464.876C15.278 471.05 1.40796 460.516 3.98896 447.272C12.355 404.355 36.728 367.438 70.277 342.418C139.418 404.159 250.403 397.746 254.349 397.5ZM507.33 447.285C509.916 460.528 496.047 471.074 484.05 464.899C448.076 446.38 394.764 449.131 364.429 448.306C301.538 446.662 268.736 423.56 256.816 397.5C256.816 397.5 370.677 405.31 441.05 342.336C474.54 367.422 498.948 404.359 507.33 447.285Z" fill="#13BD79"/>
<path d="M445.095 342.193C492.559 298.184 511.034 225.816 511.85 161.503C511.987 150.605 502.929 142.259 492.646 142.469C481.67 142.617 467.459 143.351 451.51 145.445C448.919 106.59 438.216 72.348 431.952 55.171C428.299 45.166 417.226 40.085 407.282 44.009C385.91 52.458 345.407 71.223 310.962 102.705C295.74 79.231 279.465 60.978 269.082 50.327C261.705 42.76 249.539 42.761 242.163 50.327C231.772 60.986 215.483 79.255 200.253 102.75C165.858 71.245 125.342 52.465 103.968 44.012C94.0399 40.086 82.9509 45.154 79.2929 55.173C73.0339 72.336 62.3449 106.534 59.7419 145.347C44.0959 143.326 30.1569 142.615 19.3509 142.47C8.71794 142.29 0.0169422 150.899 0.149942 161.504C0.965942 225.846 19.4309 297.989 66.6449 341.945C32.6739 368.066 9.53494 405.173 1.42694 446.773C-1.58106 462.193 14.5749 474.349 28.4709 467.198C63.3779 449.233 114.204 451.812 146.883 450.916C200.722 449.506 240.119 431.326 255.577 400.924C265.16 419.801 291.704 449.017 364.356 450.916C396.971 451.801 447.778 449.163 482.853 467.22C496.751 474.371 512.901 462.188 509.892 446.786C501.812 405.395 478.829 368.393 445.095 342.193ZM492.718 147.691C500.242 147.572 506.732 153.612 506.629 161.437C506.196 195.557 499.398 280.706 445.782 334.324C401.237 378.869 325.369 396.633 262.081 395.091C308.479 350.667 349.776 284.266 349.776 219.184C349.776 209.013 348.522 196.781 346.622 187.044C388.035 159.907 443.673 148.352 492.718 147.691ZM409.202 48.865C416.354 46.034 424.384 49.672 427.047 56.961C433.236 73.931 443.848 107.797 446.35 146.165C410.88 151.377 375.557 162.314 345.472 181.535C339.593 155.193 328.086 130.04 313.788 107.15C347.755 75.856 388.026 57.237 409.202 48.865ZM245.901 53.973C251.23 48.51 260.016 48.51 265.344 53.973C307.668 97.39 344.53 158.358 344.53 219.213C344.53 307.213 269.373 381.137 255.966 393.617C242.96 381.608 167.445 308.042 167.445 219.184C167.446 157.678 202.093 98.91 245.901 53.973ZM84.1979 56.963C86.8589 49.679 94.8869 46.033 102.045 48.867C123.217 57.241 163.471 75.861 197.383 107.154C183.323 129.567 171.662 155.229 165.864 181.128C133.213 160.396 96.0949 150.569 64.9029 146.057C67.4199 107.735 78.0149 73.916 84.1979 56.963ZM5.37094 161.437C5.26794 153.606 11.7849 147.541 19.2789 147.691C68.3099 148.352 123.72 160.236 164.648 187.06C149.786 264.58 194.175 342.093 249.254 395.097C187.7 396.762 111.433 379.54 66.2179 334.323C12.6019 280.709 5.80494 195.559 5.37094 161.437ZM146.743 445.697C112.95 446.61 62.2339 443.949 26.0789 462.555C15.8789 467.802 4.41594 458.731 6.55094 447.772C14.4449 407.28 36.9959 371.143 70.1489 345.786C117.047 386.587 188.998 401.764 250.009 400.307C234.823 427.895 197.538 444.366 146.743 445.697ZM485.245 462.577C448.594 443.711 395.152 446.525 364.497 445.697C313.601 444.366 276.28 427.887 261.135 400.288C321.563 401.948 395.074 385.872 441.175 345.708C474.318 371.165 496.872 407.335 504.768 447.785C506.911 458.765 495.427 467.817 485.245 462.577Z" fill="black"/>
</svg>
